<svg id="svg" version="1.1" xmlns="http://www.w3.org/2000/svg" xmlns:xlink="http://www.w3.org/1999/xlink" width="400" height="400" viewBox="0, 0, 400,400"><g id="svgg"><path id="path0" d="M139.967 159.507 C 137.041 160.948,135.669 161.896,130.285 166.200 C 124.992 170.431,112.654 182.689,108.543 187.800 C 105.908 191.076,103.072 194.857,101.493 197.200 C 100.678 198.410,99.381 200.300,98.611 201.400 C 97.842 202.500,97.209 203.612,97.206 203.871 C 97.203 204.131,96.929 204.614,96.598 204.945 C 95.652 205.891,87.991 220.553,87.997 221.406 C 87.999 221.629,87.619 222.523,87.153 223.393 C 86.687 224.262,86.056 225.813,85.751 226.839 C 85.447 227.865,84.947 228.912,84.641 229.166 C 84.334 229.421,83.968 230.246,83.826 231.000 C 83.647 231.955,83.240 232.529,82.485 232.891 C 81.328 233.445,81.209 234.004,81.910 235.600 C 82.177 236.208,82.377 236.365,82.421 236.000 C 82.460 235.670,82.534 235.220,82.585 235.000 C 82.636 234.780,82.708 234.420,82.745 234.200 C 82.790 233.933,82.910 233.933,83.106 234.200 C 83.299 234.462,90.108 234.531,102.834 234.400 L 122.268 234.200 124.604 232.400 C 125.890 231.410,127.674 229.917,128.571 229.082 C 131.385 226.460,133.743 224.423,135.400 223.184 C 137.412 221.680,138.020 221.219,141.071 218.888 C 143.720 216.864,147.724 214.087,150.000 212.695 C 150.770 212.224,152.367 211.245,153.548 210.519 C 154.730 209.794,155.827 209.200,155.986 209.200 C 156.146 209.200,156.593 208.850,156.979 208.423 C 157.366 207.995,158.192 207.534,158.814 207.397 C 159.436 207.260,160.141 206.913,160.380 206.624 C 160.619 206.336,164.547 204.261,169.108 202.014 C 179.955 196.670,181.387 196.000,181.961 196.000 C 182.225 196.000,183.107 195.651,183.921 195.225 C 186.696 193.771,189.879 192.400,190.480 192.400 C 190.811 192.400,191.873 191.980,192.840 191.468 C 193.808 190.955,195.200 190.416,195.932 190.271 C 196.665 190.126,197.725 189.645,198.286 189.204 C 198.848 188.762,199.742 188.400,200.272 188.400 C 200.803 188.400,202.082 187.950,203.115 187.400 C 204.148 186.850,205.394 186.400,205.883 186.400 C 207.506 186.400,210.961 182.996,211.587 180.781 C 211.807 180.000,212.516 178.856,213.161 178.237 C 213.807 177.618,214.442 176.687,214.573 176.167 C 214.703 175.646,215.239 174.589,215.763 173.817 C 216.287 173.045,217.049 171.601,217.458 170.608 C 217.866 169.615,218.335 168.802,218.500 168.801 C 218.665 168.801,218.800 168.620,218.800 168.400 C 218.800 168.180,218.541 168.000,218.224 168.000 C 217.907 168.000,217.529 167.809,217.385 167.576 C 217.212 167.296,217.665 167.206,218.725 167.312 C 220.029 167.443,220.283 167.360,220.094 166.867 C 219.932 166.446,220.045 166.332,220.464 166.492 C 220.823 166.630,221.067 166.499,221.067 166.166 C 221.067 165.528,219.801 165.652,218.335 166.433 C 217.529 166.862,217.466 166.851,217.880 166.349 C 218.270 165.876,218.212 165.756,217.571 165.708 C 217.060 165.669,216.883 165.816,217.068 166.124 C 217.280 166.477,217.205 166.489,216.777 166.168 C 216.460 165.931,214.940 165.702,213.400 165.660 C 211.860 165.618,210.543 165.418,210.474 165.215 C 210.405 165.011,210.045 164.951,209.674 165.081 C 209.125 165.274,209.093 165.218,209.500 164.779 C 210.225 163.997,210.118 163.711,209.100 163.703 C 196.635 163.613,197.265 163.666,197.128 162.700 C 196.976 161.634,197.524 161.704,188.900 161.646 C 182.282 161.602,182.000 161.567,182.000 160.800 C 182.000 160.018,181.733 160.000,170.000 160.000 C 162.267 160.000,158.000 159.858,158.000 159.600 C 158.000 159.380,158.015 159.085,158.034 158.945 C 158.132 158.216,156.373 158.012,150.000 158.013 L 143.000 158.015 139.967 159.507 M83.744 235.106 C 83.410 235.322,83.426 235.528,83.803 235.878 C 84.209 236.254,84.362 236.190,84.522 235.578 C 84.736 234.760,84.502 234.618,83.744 235.106 " stroke="none" fill="#fc7b74" fill-rule="evenodd"></path><path id="path1" d="M222.400 36.824 C 222.400 37.057,222.220 37.136,222.000 37.000 C 221.780 36.864,221.600 36.956,221.600 37.203 C 221.600 37.488,221.930 37.549,222.497 37.369 C 223.330 37.105,223.351 37.139,222.797 37.842 C 222.250 38.536,222.257 38.555,222.876 38.071 C 223.248 37.780,223.454 37.285,223.333 36.971 C 223.079 36.308,222.400 36.201,222.400 36.824 M212.028 41.297 C 212.233 42.011,212.395 42.686,212.388 42.797 C 212.368 43.135,211.422 41.428,211.410 41.033 C 211.405 40.832,211.130 40.593,210.800 40.503 C 210.312 40.370,210.302 40.411,210.745 40.721 C 211.206 41.044,211.206 41.132,210.745 41.287 C 210.295 41.438,210.304 41.603,210.800 42.235 C 211.355 42.942,211.347 42.959,210.700 42.451 C 210.179 42.043,209.863 42.016,209.463 42.348 C 209.168 42.593,208.825 42.692,208.701 42.568 C 208.253 42.120,206.064 41.973,205.816 42.373 C 205.647 42.648,205.316 42.629,204.814 42.316 C 203.971 41.789,202.800 42.448,202.800 43.449 C 202.800 43.810,202.326 44.000,201.423 44.000 C 200.535 44.000,199.859 44.264,199.523 44.743 C 199.062 45.397,195.027 46.337,193.870 46.059 C 193.689 46.016,193.632 46.128,193.744 46.309 C 194.231 47.097,193.204 47.576,190.878 47.645 C 188.624 47.713,188.362 47.810,188.149 48.660 C 187.941 49.490,187.679 49.600,185.914 49.600 C 184.407 49.600,183.965 49.732,184.120 50.136 C 184.508 51.147,183.786 51.541,181.321 51.663 C 179.963 51.731,178.922 51.855,179.007 51.941 C 179.430 52.363,177.835 53.256,176.506 53.341 C 175.678 53.394,174.978 53.654,174.950 53.919 C 174.923 54.183,174.878 54.570,174.850 54.777 C 174.822 54.984,174.035 55.209,173.100 55.277 C 171.687 55.379,171.378 55.552,171.272 56.300 C 171.159 57.093,170.912 57.200,169.185 57.200 C 167.612 57.200,167.270 57.318,167.454 57.797 C 167.722 58.496,166.900 58.887,165.024 58.953 C 164.297 58.979,163.768 59.180,163.847 59.400 C 164.137 60.204,163.342 60.759,161.769 60.852 C 160.502 60.927,160.147 61.111,160.101 61.719 C 160.022 62.774,159.907 62.842,158.080 62.926 C 157.199 62.967,156.562 63.135,156.663 63.300 C 156.764 63.465,156.657 63.600,156.424 63.600 C 156.191 63.600,156.000 63.864,156.000 64.187 C 156.000 64.538,155.765 64.685,155.417 64.551 C 155.028 64.402,154.747 64.672,154.573 65.364 C 154.314 66.396,154.143 66.459,151.364 66.537 C 150.734 66.555,150.553 66.788,150.629 67.480 C 150.691 68.053,150.517 68.400,150.165 68.400 C 149.854 68.400,149.597 68.625,149.594 68.900 C 149.590 69.234,149.462 69.202,149.211 68.803 C 148.944 68.381,148.709 68.331,148.407 68.633 C 148.106 68.934,148.214 69.270,148.778 69.780 C 149.393 70.336,149.483 70.672,149.173 71.250 C 148.884 71.791,148.907 72.000,149.256 72.000 C 149.523 72.000,149.350 72.414,148.870 72.926 L 148.000 73.852 148.000 112.569 C 148.000 144.456,148.093 151.250,148.528 151.083 C 149.553 150.690,150.030 153.054,149.150 154.173 C 148.382 155.149,148.382 155.162,149.163 155.580 C 150.170 156.119,150.691 155.409,149.708 154.837 C 149.319 154.610,149.090 154.405,149.200 154.382 C 149.310 154.359,149.850 154.262,150.400 154.166 C 152.067 153.874,152.400 153.658,152.400 152.868 C 152.400 152.239,152.639 152.137,153.800 152.265 C 154.746 152.369,155.202 152.254,155.206 151.909 C 155.210 151.552,155.340 151.579,155.641 152.000 C 155.985 152.482,156.031 152.423,155.872 151.700 C 155.630 150.594,155.823 150.466,157.941 150.341 C 159.009 150.278,159.561 150.075,159.450 149.785 C 159.122 148.932,159.806 148.459,161.606 148.291 C 162.869 148.174,163.438 147.929,163.529 147.462 C 163.620 147.000,164.072 146.800,165.029 146.800 C 165.783 146.800,166.400 146.609,166.400 146.376 C 166.400 146.143,166.580 146.064,166.800 146.200 C 167.020 146.336,167.200 146.257,167.200 146.024 C 167.200 145.791,166.984 145.600,166.720 145.600 C 165.286 145.600,167.319 144.778,168.925 144.708 C 169.956 144.663,170.800 144.475,170.800 144.289 C 170.800 144.104,170.607 144.072,170.370 144.218 C 170.134 144.364,170.178 144.105,170.467 143.642 C 170.935 142.892,172.869 142.474,174.530 142.763 C 174.712 142.794,174.745 142.456,174.603 142.010 C 174.365 141.259,176.091 140.835,178.100 141.153 C 178.265 141.179,178.400 140.760,178.400 140.222 C 178.400 139.339,178.585 139.232,180.300 139.122 C 182.001 139.013,182.190 138.906,182.105 138.100 C 182.014 137.244,182.145 137.200,184.778 137.200 C 187.195 137.200,187.578 137.098,187.800 136.400 C 188.013 135.728,188.405 135.600,190.244 135.600 C 192.109 135.600,192.418 135.496,192.318 134.900 C 192.252 134.509,192.421 134.244,192.700 134.300 C 192.975 134.355,193.200 134.220,193.200 134.000 C 193.200 133.780,194.100 133.600,195.200 133.600 C 197.067 133.600,197.200 133.533,197.200 132.600 C 197.200 131.650,197.315 131.600,199.500 131.594 C 201.664 131.588,202.912 131.237,202.834 130.655 C 202.815 130.515,202.800 130.265,202.800 130.100 C 202.800 129.935,204.049 129.812,205.576 129.827 C 207.102 129.842,208.341 129.752,208.328 129.627 C 208.161 127.976,208.402 127.768,210.418 127.822 C 211.762 127.858,212.303 127.743,212.037 127.477 C 211.771 127.211,211.771 126.828,212.037 126.330 C 212.257 125.920,212.336 125.420,212.212 125.219 C 212.088 125.019,212.198 124.725,212.455 124.566 C 212.737 124.392,212.817 124.449,212.655 124.711 C 212.508 124.949,212.525 125.230,212.693 125.334 C 212.862 125.438,212.952 107.235,212.893 84.881 C 212.817 56.115,212.658 44.160,212.350 43.969 C 212.042 43.778,212.051 43.616,212.381 43.412 C 212.637 43.253,212.792 42.652,212.724 42.076 C 212.631 41.291,212.851 40.901,213.600 40.520 C 214.585 40.020,214.577 40.012,213.128 40.006 C 211.657 40.000,211.656 40.001,212.028 41.297 M141.436 72.342 C 141.276 72.601,141.425 72.911,141.772 73.045 C 142.115 73.176,142.272 73.490,142.121 73.742 C 141.970 73.994,142.151 73.953,142.523 73.651 C 142.895 73.349,143.186 72.899,143.168 72.651 C 143.150 72.387,143.050 72.416,142.928 72.721 C 142.770 73.116,142.598 73.077,142.221 72.561 C 141.869 72.079,141.638 72.015,141.436 72.342 M213.733 126.610 C 213.733 127.178,214.860 127.171,215.326 126.600 C 215.506 126.380,215.531 126.628,215.383 127.150 C 215.194 127.820,215.251 128.015,215.579 127.813 C 215.835 127.655,215.989 127.236,215.921 126.883 C 215.777 126.137,213.733 125.881,213.733 126.610 M146.000 157.000 C 145.726 157.330,145.134 157.600,144.684 157.600 C 144.235 157.600,143.978 157.712,144.115 157.848 C 144.529 158.262,146.296 157.647,146.543 157.003 C 146.838 156.236,146.635 156.235,146.000 157.000 M139.681 158.452 C 138.956 158.662,138.262 159.095,138.138 159.416 C 138.015 159.737,137.688 160.000,137.412 160.000 C 137.136 160.000,136.210 160.549,135.355 161.221 C 134.500 161.892,133.295 162.837,132.678 163.321 C 132.061 163.804,130.660 165.010,129.564 166.000 C 128.468 166.990,127.031 168.250,126.369 168.800 C 123.792 170.943,112.172 182.925,111.693 183.933 C 111.283 184.795,111.283 184.851,111.693 184.226 C 112.992 182.242,126.028 169.603,130.285 166.200 C 135.669 161.896,137.041 160.948,139.967 159.507 C 142.941 158.044,142.808 157.551,139.681 158.452 M217.733 166.258 C 217.733 166.618,217.938 166.647,218.467 166.364 C 218.870 166.148,219.200 165.899,219.200 165.811 C 219.200 165.722,218.870 165.675,218.467 165.705 C 218.063 165.735,217.733 165.984,217.733 166.258 M220.120 166.936 C 220.277 167.345,219.944 167.434,218.725 167.312 C 217.665 167.206,217.212 167.296,217.385 167.576 C 217.529 167.809,217.907 168.000,218.224 168.000 C 218.541 168.000,218.800 168.180,218.800 168.400 C 218.800 168.620,218.665 168.801,218.500 168.801 C 218.335 168.802,217.866 169.615,217.458 170.608 C 217.049 171.601,216.287 173.045,215.763 173.817 C 215.239 174.589,214.703 175.646,214.573 176.167 C 214.442 176.687,213.807 177.618,213.161 178.237 C 212.516 178.856,211.807 180.000,211.587 180.781 C 210.961 182.996,207.506 186.400,205.883 186.400 C 205.394 186.400,204.148 186.850,203.115 187.400 C 202.082 187.950,200.803 188.400,200.272 188.400 C 199.742 188.400,198.848 188.762,198.286 189.204 C 197.725 189.645,196.665 190.126,195.932 190.271 C 195.200 190.416,193.808 190.955,192.840 191.468 C 191.873 191.980,190.811 192.400,190.480 192.400 C 189.879 192.400,186.696 193.771,183.921 195.225 C 183.107 195.651,182.225 196.000,181.961 196.000 C 181.387 196.000,179.955 196.670,169.108 202.014 C 164.547 204.261,160.619 206.336,160.380 206.624 C 160.141 206.913,159.436 207.260,158.814 207.397 C 158.192 207.534,157.366 207.995,156.979 208.423 C 156.593 208.850,156.146 209.200,155.986 209.200 C 155.827 209.200,154.730 209.794,153.548 210.519 C 152.367 211.245,150.770 212.224,150.000 212.695 C 147.724 214.087,143.720 216.864,141.071 218.888 C 138.020 221.219,137.412 221.680,135.400 223.184 C 133.743 224.423,131.385 226.460,128.571 229.082 C 125.753 231.707,122.645 233.928,121.400 234.206 C 119.235 234.690,118.737 234.870,118.956 235.089 C 119.284 235.417,118.409 236.853,118.025 236.616 C 117.841 236.502,117.468 236.677,117.196 237.004 C 116.924 237.332,116.822 237.600,116.968 237.600 C 117.114 237.600,116.776 238.380,116.218 239.334 C 115.659 240.288,115.336 241.217,115.501 241.398 C 115.665 241.580,115.587 241.606,115.328 241.458 C 115.068 241.309,114.740 241.373,114.600 241.600 C 114.460 241.827,114.153 241.894,113.918 241.750 C 113.664 241.592,113.863 241.287,114.413 240.993 L 115.334 240.500 114.348 240.500 C 113.552 240.500,113.346 240.719,113.276 241.640 C 113.212 242.478,113.338 242.722,113.754 242.562 C 114.429 242.303,114.992 243.034,114.400 243.400 C 114.173 243.540,114.091 243.823,114.217 244.028 C 114.344 244.232,114.302 244.400,114.124 244.400 C 113.946 244.400,113.774 244.849,113.742 245.398 C 113.705 246.049,113.844 246.300,114.142 246.121 C 114.394 245.970,114.353 246.151,114.051 246.523 C 113.664 247.001,113.641 247.200,113.975 247.200 C 114.235 247.200,114.349 247.360,114.228 247.555 C 113.880 248.117,113.967 317.808,114.315 317.729 C 114.488 317.689,114.629 317.991,114.629 318.399 C 114.629 318.807,114.464 319.039,114.262 318.915 C 114.061 318.790,113.984 318.939,114.091 319.244 C 114.198 319.550,114.580 319.775,114.939 319.745 C 115.298 319.715,115.500 319.838,115.389 320.018 C 115.085 320.509,115.836 320.838,116.596 320.546 C 117.041 320.376,117.192 320.007,117.048 319.445 C 116.853 318.682,116.909 318.698,117.621 319.600 C 118.197 320.329,118.336 320.392,118.137 319.834 C 117.983 319.403,118.025 319.166,118.232 319.292 C 118.706 319.580,119.640 318.583,119.276 318.179 C 119.124 318.010,119.360 317.994,119.800 318.142 C 120.443 318.358,120.403 318.255,119.600 317.621 C 118.677 316.893,118.667 316.849,119.461 317.053 C 120.102 317.216,120.393 317.052,120.596 316.412 C 120.746 315.939,121.316 315.348,121.861 315.099 C 122.588 314.768,122.797 314.427,122.643 313.824 C 122.458 313.103,122.531 313.125,123.221 314.000 C 123.797 314.729,123.936 314.792,123.737 314.234 C 123.557 313.728,123.613 313.561,123.903 313.740 C 124.150 313.893,124.458 313.646,124.607 313.177 C 124.761 312.691,125.100 312.429,125.416 312.551 C 125.757 312.682,125.881 312.555,125.749 312.210 C 125.526 311.631,126.916 310.649,127.347 311.081 C 127.573 311.307,127.769 310.273,127.647 309.500 C 127.603 309.216,128.374 309.049,129.514 309.095 C 129.838 309.108,129.939 308.837,129.787 308.358 C 129.564 307.655,130.109 307.365,131.300 307.553 C 131.465 307.579,131.600 307.163,131.600 306.628 C 131.600 305.924,131.849 305.620,132.500 305.528 C 133.078 305.446,133.446 305.078,133.528 304.500 C 133.653 303.616,134.455 303.358,136.517 303.535 C 136.912 303.569,137.205 303.372,137.170 303.098 C 137.013 301.886,137.222 301.553,137.987 301.796 C 138.597 301.989,138.831 301.816,139.030 301.023 C 139.250 300.148,139.509 300.000,140.820 300.000 C 141.663 300.000,142.481 299.792,142.638 299.538 C 142.821 299.242,142.747 299.185,142.432 299.380 C 142.073 299.602,142.082 299.458,142.467 298.842 C 142.756 298.379,143.399 298.000,143.896 298.000 C 144.533 298.000,144.800 297.764,144.800 297.200 C 144.800 296.760,144.935 296.377,145.100 296.349 C 145.938 296.206,147.458 295.976,147.902 295.925 C 148.178 295.893,148.358 295.582,148.302 295.233 C 148.233 294.807,148.560 294.559,149.300 294.473 C 150.164 294.374,150.400 294.138,150.400 293.373 C 150.400 292.528,150.584 292.400,151.800 292.400 C 152.650 292.400,153.202 292.204,153.206 291.900 C 153.210 291.567,153.342 291.600,153.600 292.000 C 153.914 292.485,153.989 292.428,153.994 291.700 C 153.997 291.192,154.261 290.778,154.600 290.750 C 154.930 290.723,155.380 290.655,155.600 290.600 C 155.820 290.545,156.191 290.478,156.424 290.450 C 156.657 290.423,156.744 290.232,156.617 290.028 C 156.491 289.823,156.557 289.550,156.766 289.421 C 156.974 289.292,157.275 289.398,157.434 289.655 C 157.627 289.967,157.549 290.016,157.200 289.800 C 156.851 289.584,156.773 289.633,156.966 289.945 C 157.325 290.526,158.000 290.154,158.000 289.376 C 158.000 289.059,158.345 288.800,158.767 288.800 C 159.188 288.800,159.624 288.575,159.735 288.300 C 159.896 287.900,159.943 287.900,159.968 288.300 C 160.007 288.905,161.051 288.965,161.411 288.382 C 161.553 288.153,161.451 287.703,161.185 287.382 C 160.777 286.891,160.928 286.800,162.151 286.800 C 162.956 286.800,163.600 286.600,163.600 286.351 C 163.600 286.044,163.793 286.062,164.210 286.408 C 165.013 287.075,165.461 286.596,164.789 285.787 C 164.352 285.260,164.359 285.175,164.832 285.277 C 165.145 285.345,165.368 285.214,165.329 284.986 C 165.289 284.758,165.591 284.571,165.999 284.571 C 166.407 284.571,166.635 284.743,166.505 284.954 C 166.363 285.183,166.574 285.214,167.034 285.029 C 167.455 284.861,168.070 284.678,168.400 284.624 C 168.730 284.569,169.060 284.181,169.134 283.762 C 169.207 283.343,169.531 282.794,169.852 282.543 C 170.358 282.147,170.433 276.812,170.409 242.867 C 170.385 207.206,170.441 203.600,171.029 203.124 C 171.385 202.836,172.094 202.218,172.604 201.752 C 173.115 201.285,173.985 200.790,174.538 200.651 C 175.092 200.512,175.819 200.124,176.155 199.788 C 176.491 199.451,177.530 198.907,178.463 198.578 C 179.397 198.248,180.439 197.728,180.780 197.421 C 181.121 197.114,181.940 196.732,182.600 196.573 C 183.260 196.414,184.278 195.950,184.862 195.542 C 185.446 195.134,186.148 194.800,186.423 194.800 C 186.698 194.800,187.846 194.363,188.974 193.829 C 190.103 193.296,191.560 192.731,192.213 192.574 C 192.866 192.418,193.599 192.134,193.843 191.943 C 194.254 191.621,195.386 191.192,200.600 189.378 C 201.700 188.996,203.410 188.354,204.400 187.951 C 205.390 187.549,206.920 187.101,207.800 186.956 C 208.680 186.811,210.030 186.382,210.800 186.003 C 211.570 185.624,212.898 185.206,213.752 185.074 C 214.605 184.942,216.225 184.487,217.352 184.063 C 218.478 183.639,220.570 182.991,222.000 182.624 C 227.662 181.168,231.141 180.311,234.200 179.619 C 235.960 179.221,238.390 178.619,239.600 178.281 C 240.810 177.944,242.769 177.553,243.954 177.413 C 245.139 177.273,247.467 176.702,249.128 176.144 C 250.923 175.542,252.754 175.188,253.641 175.272 C 254.461 175.351,255.033 175.253,254.910 175.055 C 254.416 174.256,245.242 175.021,244.260 175.943 C 243.450 176.704,242.889 176.800,239.237 176.800 C 235.462 176.800,235.108 176.865,234.916 177.600 C 234.752 178.227,234.370 178.400,233.153 178.400 C 231.279 178.400,231.260 178.250,232.842 175.862 C 233.746 174.497,234.016 173.718,233.834 172.994 C 233.647 172.250,233.743 172.000,234.216 172.000 C 234.599 172.000,234.741 172.197,234.577 172.500 C 234.428 172.775,234.801 172.460,235.406 171.800 C 236.079 171.067,236.574 170.787,236.680 171.080 C 236.797 171.403,237.145 171.449,237.748 171.220 C 238.241 171.032,238.917 171.034,239.254 171.222 C 239.666 171.453,239.867 171.394,239.867 171.043 C 239.867 170.698,239.447 170.564,238.633 170.650 C 237.511 170.767,237.465 170.729,238.124 170.228 C 238.582 169.880,238.692 169.580,238.424 169.415 C 238.191 169.271,238.000 169.354,238.000 169.600 C 238.000 169.846,237.785 169.914,237.522 169.752 C 237.260 169.590,235.685 169.408,234.022 169.348 C 231.036 169.241,227.739 168.395,228.263 167.870 C 228.412 167.722,228.323 167.600,228.067 167.600 C 227.810 167.600,227.587 167.825,227.572 168.100 C 227.556 168.375,227.389 168.240,227.200 167.800 L 226.856 167.000 226.822 167.800 C 226.795 168.425,226.710 168.477,226.433 168.039 C 226.044 167.426,223.600 166.999,223.600 167.544 C 223.600 167.729,222.970 167.683,222.200 167.442 C 221.430 167.201,220.800 166.868,220.800 166.702 C 220.800 166.536,220.601 166.400,220.357 166.400 C 220.114 166.400,220.007 166.641,220.120 166.936 M234.915 170.151 C 235.048 170.018,235.128 170.290,235.093 170.755 C 235.022 171.708,234.400 171.928,234.400 171.000 C 234.400 170.670,234.220 170.400,234.000 170.400 C 233.780 170.400,233.600 170.198,233.600 169.951 C 233.600 169.621,233.742 169.620,234.137 169.948 C 234.432 170.193,234.782 170.284,234.915 170.151 M106.505 189.900 C 105.034 191.681,103.779 193.524,104.667 192.600 C 105.640 191.586,108.453 188.000,108.274 188.000 C 108.164 188.000,107.368 188.855,106.505 189.900 M101.229 197.054 C 100.773 197.634,100.405 198.309,100.412 198.554 C 100.419 198.799,100.624 198.640,100.868 198.200 C 101.112 197.760,101.585 197.085,101.918 196.700 C 102.251 196.315,102.419 196.000,102.291 196.000 C 102.163 196.000,101.685 196.474,101.229 197.054 M84.662 228.331 C 83.933 229.137,83.772 229.788,84.398 229.401 C 84.815 229.143,85.739 227.600,85.476 227.600 C 85.392 227.600,85.026 227.929,84.662 228.331 M82.534 231.907 C 81.665 232.047,80.864 233.200,81.636 233.200 C 81.862 233.200,81.919 233.408,81.762 233.662 C 81.584 233.950,81.652 234.015,81.945 233.834 C 82.202 233.675,82.309 233.377,82.183 233.172 C 82.056 232.968,82.223 232.800,82.553 232.800 C 82.883 232.800,83.271 232.608,83.416 232.373 C 83.757 231.823,83.594 231.737,82.534 231.907 M82.755 234.000 C 82.408 235.200,82.652 236.229,83.283 236.229 C 83.677 236.229,84.000 236.087,84.000 235.914 C 84.000 235.741,83.786 235.600,83.524 235.600 C 83.261 235.600,83.396 235.317,83.824 234.970 C 84.251 234.624,84.355 234.467,84.055 234.622 C 83.754 234.777,83.355 234.657,83.161 234.351 C 82.969 234.048,82.786 233.890,82.755 234.000 M111.200 243.100 C 111.200 243.349,111.383 243.666,111.607 243.804 C 111.830 243.942,111.880 244.268,111.718 244.528 C 111.349 245.118,111.096 246.637,111.421 246.312 C 111.552 246.181,111.697 245.832,111.741 245.537 C 111.786 245.241,111.936 244.818,112.076 244.596 C 112.215 244.373,112.075 243.844,111.765 243.419 C 111.454 242.995,111.200 242.851,111.200 243.100 M105.821 249.966 C 105.459 250.551,105.567 250.681,106.559 250.862 C 106.976 250.938,107.367 250.770,107.429 250.490 C 107.490 250.210,107.445 250.174,107.330 250.411 C 107.199 250.678,106.929 250.583,106.621 250.161 C 106.251 249.655,106.044 249.605,105.821 249.966 M176.224 279.813 C 175.546 280.325,175.534 280.400,176.124 280.400 C 176.496 280.400,176.800 280.233,176.800 280.028 C 176.800 279.823,177.205 279.578,177.700 279.482 C 178.471 279.334,178.485 279.303,177.800 279.267 C 177.360 279.244,176.651 279.490,176.224 279.813 M171.597 280.750 C 171.265 280.888,170.975 281.497,170.952 282.104 C 170.918 282.992,171.016 283.119,171.455 282.755 C 171.870 282.410,172.003 282.433,172.012 282.851 C 172.020 283.209,172.172 283.146,172.449 282.670 C 172.990 281.740,172.605 281.332,171.810 281.992 C 171.474 282.270,171.200 282.361,171.200 282.193 C 171.200 282.025,171.515 281.658,171.899 281.377 C 172.699 280.792,172.498 280.377,171.597 280.750 M168.667 283.737 C 168.667 284.014,168.292 284.257,167.833 284.279 C 167.375 284.301,167.225 284.232,167.500 284.126 C 168.276 283.827,168.089 283.196,167.300 283.450 C 166.746 283.629,166.717 283.592,167.164 283.275 C 167.844 282.791,168.667 283.044,168.667 283.737 M121.200 316.233 C 121.200 316.582,121.414 316.795,121.675 316.708 C 122.417 316.461,122.540 315.600,121.833 315.600 C 121.485 315.600,121.200 315.885,121.200 316.233 M114.589 321.468 C 114.261 321.796,114.098 322.275,114.226 322.532 C 114.354 322.790,114.158 322.640,113.791 322.200 C 113.147 321.430,113.133 321.452,113.408 322.800 C 113.565 323.570,113.772 324.285,113.868 324.388 C 114.164 324.707,114.736 323.506,114.608 322.834 C 114.542 322.485,114.738 321.968,115.044 321.684 C 115.502 321.259,115.600 321.283,115.600 321.818 C 115.600 322.509,116.454 322.437,116.691 321.726 C 116.924 321.028,115.236 320.821,114.589 321.468 " stroke="none" fill="#fc4451" fill-rule="evenodd"></path><path id="path2" d="M300.329 22.456 C 299.797 23.257,299.454 23.309,295.046 23.254 C 292.453 23.222,290.122 23.325,289.866 23.483 C 289.610 23.641,288.929 23.721,288.353 23.661 C 287.580 23.580,287.250 23.766,287.091 24.375 C 286.972 24.829,286.543 25.213,286.137 25.228 C 285.732 25.243,283.840 25.287,281.932 25.325 C 280.025 25.363,278.495 25.553,278.532 25.747 C 278.570 25.941,278.346 26.192,278.036 26.305 C 277.642 26.448,277.550 26.308,277.729 25.842 C 277.935 25.304,277.778 25.202,276.915 25.318 C 276.327 25.397,275.768 25.697,275.671 25.986 C 275.553 26.342,275.674 26.404,276.048 26.179 C 276.499 25.907,276.509 25.959,276.103 26.460 C 275.830 26.797,275.735 27.202,275.891 27.358 C 276.048 27.514,275.884 27.530,275.528 27.394 C 275.172 27.257,274.762 27.338,274.617 27.573 C 274.468 27.813,274.670 28.014,275.076 28.032 C 275.496 28.050,275.590 28.148,275.300 28.265 C 275.025 28.376,274.800 28.707,274.800 29.000 C 274.800 29.293,275.025 29.616,275.300 29.717 C 275.700 29.863,275.700 30.006,275.300 30.430 C 274.630 31.140,274.560 112.000,275.229 112.000 C 275.465 112.000,275.599 112.312,275.525 112.692 C 275.442 113.123,275.019 113.387,274.403 113.392 C 273.760 113.397,273.363 113.661,273.269 114.147 C 273.177 114.618,273.288 114.793,273.568 114.620 C 273.813 114.468,273.920 114.194,273.806 114.010 C 273.692 113.825,273.974 113.773,274.433 113.893 C 275.068 114.059,275.140 114.192,274.734 114.449 C 274.320 114.711,274.315 114.789,274.710 114.794 C 274.990 114.797,275.399 114.330,275.617 113.755 C 275.911 112.982,276.221 112.764,276.807 112.918 C 277.243 113.032,277.600 112.981,277.600 112.805 C 277.600 112.629,278.305 112.643,279.166 112.837 C 280.848 113.215,283.699 113.111,285.000 112.624 C 285.639 112.385,285.679 112.411,285.200 112.756 C 284.681 113.129,284.695 113.189,285.300 113.194 C 285.789 113.198,286.012 112.868,286.040 112.100 L 286.080 111.000 286.400 112.000 C 286.703 112.948,286.722 112.953,286.760 112.110 C 286.799 111.233,286.894 111.218,293.300 111.110 C 298.142 111.028,299.813 110.872,299.850 110.500 C 299.877 110.225,299.923 109.820,299.950 109.600 C 299.981 109.352,302.446 109.200,306.437 109.200 C 312.538 109.200,312.886 109.158,313.084 108.400 C 313.263 107.717,313.630 107.600,315.598 107.600 C 319.072 107.600,318.800 111.416,318.694 64.166 L 318.600 21.800 310.451 21.692 C 304.321 21.610,302.147 21.709,301.674 22.092 C 301.186 22.487,301.113 22.489,301.347 22.100 C 301.870 21.229,300.924 21.561,300.329 22.456 M264.406 28.100 C 264.402 28.543,264.070 28.817,263.500 28.846 C 262.843 28.880,262.785 28.941,263.287 29.073 C 264.341 29.350,265.238 28.706,264.788 27.994 C 264.470 27.492,264.411 27.508,264.406 28.100 M257.905 29.083 C 258.402 29.179,259.122 29.175,259.505 29.075 C 259.887 28.975,259.480 28.896,258.600 28.901 C 257.720 28.905,257.407 28.987,257.905 29.083 M233.500 34.682 C 233.995 34.778,234.805 34.778,235.300 34.682 C 235.795 34.587,235.390 34.509,234.400 34.509 C 233.410 34.509,233.005 34.587,233.500 34.682 M250.181 177.006 C 249.731 177.327,247.718 177.760,245.709 177.968 C 243.699 178.176,241.637 178.619,241.127 178.952 C 240.617 179.286,238.940 179.681,237.400 179.830 C 235.794 179.985,234.060 180.425,233.333 180.862 C 232.610 181.297,230.900 181.733,229.344 181.878 C 227.334 182.066,226.455 182.337,225.988 182.914 C 225.502 183.514,224.685 183.744,222.478 183.902 C 220.386 184.051,219.600 184.259,219.600 184.664 C 219.600 185.364,217.968 186.000,216.174 186.000 L 214.800 186.000 214.800 225.200 C 214.800 260.437,214.863 264.400,215.424 264.400 C 215.767 264.400,215.934 264.583,215.796 264.807 C 215.658 265.030,215.349 265.092,215.111 264.945 C 214.849 264.783,214.792 264.863,214.966 265.145 C 215.125 265.402,215.423 265.509,215.628 265.383 C 215.971 265.171,216.175 265.741,216.037 266.530 C 216.006 266.711,216.152 266.753,216.362 266.623 C 216.573 266.493,216.870 266.589,217.022 266.836 C 217.224 267.163,217.381 267.154,217.598 266.804 C 217.786 266.500,219.165 266.291,221.336 266.240 C 224.867 266.156,225.483 265.982,225.004 265.207 C 224.804 264.883,224.573 264.891,224.155 265.237 C 223.694 265.620,223.628 265.593,223.818 265.098 C 224.010 264.596,224.945 264.473,228.892 264.425 C 233.948 264.364,234.580 264.246,234.261 263.414 C 234.090 262.969,239.994 262.219,242.861 262.321 C 243.224 262.334,243.611 262.003,243.720 261.586 C 243.897 260.906,244.390 260.815,248.459 260.713 C 252.824 260.604,253.005 260.565,253.128 259.700 C 253.221 259.046,253.524 258.800,254.237 258.800 L 255.218 258.800 255.109 251.500 C 255.002 244.338,254.983 244.198,254.126 244.076 C 252.709 243.874,252.679 243.040,252.843 209.000 L 253.000 176.600 252.000 176.511 C 251.450 176.462,250.632 176.685,250.181 177.006 M254.514 178.600 C 254.517 179.700,254.595 180.103,254.687 179.495 C 254.779 178.886,254.777 177.986,254.682 177.495 C 254.587 177.003,254.511 177.500,254.514 178.600 M214.800 267.500 C 214.800 267.665,215.233 267.800,215.762 267.800 C 216.291 267.800,216.640 267.665,216.538 267.500 C 216.436 267.335,216.003 267.200,215.576 267.200 C 215.149 267.200,214.800 267.335,214.800 267.500 M211.700 267.921 C 210.765 267.990,210.000 268.175,210.000 268.334 C 210.000 268.583,212.147 268.547,214.000 268.267 C 215.277 268.074,213.421 267.795,211.700 267.921 " stroke="none" fill="#fc8a09" fill-rule="evenodd"></path><path id="path3" d="M277.730 25.714 C 277.316 26.383,277.965 26.470,278.834 25.861 L 279.720 25.241 278.830 25.308 C 278.340 25.345,277.845 25.527,277.730 25.714 M264.930 28.053 C 265.168 28.965,265.891 28.825,259.860 29.040 C 255.034 29.212,253.048 29.715,253.886 30.552 C 254.022 30.689,252.708 30.802,250.967 30.805 C 247.037 30.812,246.000 31.071,246.000 32.047 C 246.000 32.708,240.306 33.251,237.524 32.855 C 237.373 32.834,237.139 33.163,237.004 33.588 C 236.692 34.569,236.031 34.762,232.682 34.848 C 230.566 34.902,229.851 35.077,229.457 35.640 C 229.071 36.191,228.289 36.397,226.175 36.506 C 224.449 36.595,223.433 36.814,223.487 37.086 C 223.535 37.327,223.265 37.766,222.887 38.062 C 222.267 38.547,222.254 38.532,222.749 37.900 C 223.081 37.476,223.129 37.200,222.869 37.200 C 222.633 37.200,222.296 37.457,222.120 37.771 C 221.907 38.150,220.927 38.385,219.200 38.471 C 216.952 38.582,216.547 38.722,216.205 39.500 C 215.914 40.164,215.474 40.400,214.529 40.400 C 213.109 40.400,212.568 40.962,212.736 42.262 C 212.797 42.736,212.637 43.253,212.381 43.412 C 212.051 43.616,212.042 43.778,212.350 43.969 C 212.658 44.160,212.817 56.115,212.893 84.881 C 212.952 107.235,212.862 125.438,212.693 125.334 C 212.525 125.230,212.509 124.932,212.658 124.672 C 212.806 124.413,212.776 124.339,212.589 124.508 C 212.403 124.678,212.210 125.128,212.161 125.508 C 212.112 125.889,211.982 126.575,211.872 127.033 C 211.741 127.578,211.867 127.867,212.236 127.867 C 212.546 127.867,212.800 127.695,212.800 127.484 C 212.800 127.252,212.996 127.260,213.300 127.505 C 213.923 128.007,215.602 127.427,215.594 126.713 C 215.590 126.398,215.474 126.354,215.294 126.600 C 214.879 127.164,213.733 127.182,213.733 126.624 C 213.733 126.369,214.108 126.142,214.567 126.120 C 215.025 126.098,216.690 126.020,218.267 125.948 C 219.844 125.876,221.071 125.714,220.993 125.589 C 220.540 124.855,221.781 124.416,224.730 124.267 C 228.050 124.098,228.600 123.928,228.600 123.067 C 228.600 122.758,229.886 122.532,232.400 122.400 C 235.966 122.212,236.208 122.145,236.328 121.300 C 236.452 120.429,236.597 120.400,240.865 120.400 C 244.938 120.400,245.291 120.339,245.484 119.600 C 245.669 118.894,246.051 118.795,248.747 118.754 C 250.426 118.728,251.980 118.666,252.200 118.615 C 252.420 118.564,253.022 118.494,253.537 118.461 C 254.107 118.424,254.557 118.086,254.684 117.600 C 254.903 116.764,254.786 116.778,261.930 116.721 C 263.357 116.709,263.736 116.540,264.094 115.753 C 264.549 114.756,265.344 114.644,271.256 114.747 C 272.821 114.774,273.147 114.647,273.332 113.937 C 273.496 113.311,273.770 113.151,274.401 113.316 C 275.310 113.554,276.143 112.381,275.272 112.091 C 274.564 111.855,274.592 31.180,275.300 30.430 C 275.700 30.006,275.700 29.863,275.300 29.717 C 275.025 29.616,274.800 29.293,274.800 29.000 C 274.800 28.707,275.025 28.376,275.300 28.265 C 275.590 28.148,275.496 28.050,275.076 28.032 C 274.678 28.014,274.455 27.835,274.579 27.634 C 274.711 27.420,272.716 27.276,269.770 27.287 C 265.056 27.305,264.747 27.354,264.930 28.053 M210.995 40.706 C 210.746 40.886,210.963 41.366,211.556 41.948 C 212.233 42.612,212.444 42.692,212.261 42.215 C 212.117 41.841,212.000 41.279,212.000 40.967 C 212.000 40.347,211.625 40.249,210.995 40.706 M277.600 112.869 C 277.600 113.051,278.140 113.200,278.800 113.200 C 279.460 113.200,280.000 113.130,280.000 113.045 C 280.000 112.960,279.460 112.812,278.800 112.715 C 278.140 112.618,277.600 112.687,277.600 112.869 M273.733 114.255 C 273.733 114.881,273.978 114.928,274.734 114.449 C 275.146 114.188,275.092 114.065,274.500 113.910 C 274.021 113.785,273.733 113.914,273.733 114.255 M248.959 176.179 C 247.396 176.717,245.146 177.272,243.959 177.412 C 242.771 177.553,240.810 177.944,239.600 178.281 C 238.390 178.619,235.960 179.221,234.200 179.619 C 231.141 180.311,227.662 181.168,222.000 182.624 C 220.570 182.991,218.478 183.639,217.352 184.063 C 216.225 184.487,214.605 184.942,213.752 185.074 C 212.898 185.206,211.570 185.624,210.800 186.003 C 210.030 186.382,208.680 186.811,207.800 186.956 C 206.920 187.101,205.390 187.549,204.400 187.951 C 203.410 188.354,201.700 188.996,200.600 189.378 C 195.386 191.192,194.254 191.621,193.843 191.943 C 193.599 192.134,192.866 192.418,192.213 192.574 C 191.560 192.731,190.103 193.296,188.974 193.829 C 187.846 194.363,186.698 194.800,186.423 194.800 C 186.148 194.800,185.446 195.134,184.862 195.542 C 184.278 195.950,183.260 196.414,182.600 196.573 C 181.940 196.732,181.121 197.114,180.780 197.421 C 180.439 197.728,179.397 198.248,178.463 198.578 C 177.530 198.907,176.491 199.451,176.155 199.788 C 175.819 200.124,175.092 200.512,174.538 200.651 C 173.985 200.790,173.115 201.285,172.604 201.752 C 172.094 202.218,171.385 202.836,171.029 203.124 C 170.441 203.600,170.385 207.206,170.409 242.867 C 170.435 280.143,170.401 282.112,169.718 282.637 C 169.055 283.147,169.077 283.179,170.000 283.048 C 170.714 282.946,170.969 282.691,170.890 282.153 C 170.787 281.446,170.807 281.444,171.215 282.108 C 171.454 282.498,171.821 282.711,172.031 282.581 C 172.241 282.451,172.317 282.190,172.201 282.001 C 171.966 281.622,173.510 280.988,174.300 281.139 C 174.575 281.192,174.803 281.002,174.806 280.718 C 174.810 280.348,174.920 280.371,175.189 280.797 C 175.490 281.272,175.668 281.292,176.063 280.897 C 176.459 280.501,176.447 280.400,176.004 280.400 C 175.628 280.400,175.700 280.209,176.224 279.813 C 176.651 279.490,177.667 279.220,178.481 279.213 C 180.161 279.198,182.081 278.455,181.764 277.942 C 181.648 277.754,182.058 277.581,182.676 277.557 C 185.129 277.465,185.414 277.368,185.795 276.500 C 186.138 275.718,186.489 275.600,188.472 275.600 C 190.333 275.600,190.863 275.446,191.339 274.766 C 191.784 274.130,192.502 273.879,194.352 273.711 C 196.253 273.539,196.832 273.329,197.017 272.745 C 197.203 272.159,197.654 271.999,199.127 271.995 C 201.768 271.987,202.800 271.638,202.800 270.753 C 202.800 270.087,203.125 270.000,205.624 270.000 C 207.177 270.000,208.352 269.846,208.236 269.658 C 208.119 269.470,208.469 269.401,209.012 269.504 C 209.811 269.657,210.000 269.531,210.000 268.847 C 210.000 268.014,211.444 267.709,214.100 267.979 C 214.485 268.018,214.800 267.859,214.800 267.625 C 214.800 267.083,216.271 267.068,216.604 267.607 C 216.742 267.830,217.032 267.904,217.247 267.771 C 217.494 267.618,217.467 267.322,217.174 266.969 C 216.918 266.661,216.545 266.510,216.345 266.634 C 216.144 266.758,216.006 266.711,216.037 266.530 C 216.175 265.741,215.971 265.171,215.628 265.383 C 215.423 265.509,215.125 265.402,214.966 265.145 C 214.792 264.863,214.849 264.783,215.111 264.945 C 215.349 265.092,215.658 265.030,215.796 264.807 C 215.934 264.583,215.767 264.400,215.424 264.400 C 214.863 264.400,214.800 260.437,214.800 225.200 L 214.800 186.000 216.174 186.000 C 217.968 186.000,219.600 185.364,219.600 184.664 C 219.600 184.259,220.386 184.051,222.478 183.902 C 224.685 183.744,225.502 183.514,225.988 182.914 C 226.455 182.337,227.334 182.066,229.344 181.878 C 230.900 181.733,232.610 181.297,233.333 180.862 C 234.060 180.425,235.794 179.985,237.400 179.830 C 238.940 179.681,240.617 179.286,241.127 178.952 C 241.637 178.619,243.697 178.176,245.705 177.968 C 247.714 177.760,249.780 177.312,250.301 176.971 C 250.822 176.630,251.642 176.407,252.124 176.475 L 253.000 176.600 252.843 209.000 C 252.676 243.488,252.689 243.809,254.225 244.103 L 255.204 244.290 255.102 209.845 L 255.000 175.400 253.400 175.301 C 252.496 175.245,250.564 175.627,248.959 176.179 M254.687 179.495 C 254.595 180.103,254.517 179.700,254.514 178.600 C 254.511 177.500,254.587 177.003,254.682 177.495 C 254.777 177.986,254.779 178.886,254.687 179.495 M172.108 281.252 C 171.867 281.493,171.441 281.549,171.161 281.376 C 170.786 281.144,170.855 280.989,171.427 280.781 C 172.374 280.437,172.698 280.662,172.108 281.252 M167.164 283.275 C 166.717 283.592,166.746 283.629,167.300 283.450 C 168.090 283.196,168.273 283.823,167.500 284.135 C 167.186 284.262,167.168 284.349,167.451 284.368 C 167.699 284.386,168.109 284.151,168.361 283.847 C 168.950 283.137,167.998 282.682,167.164 283.275 " stroke="none" fill="#fc7122" fill-rule="evenodd"></path><path id="path4" d="M146.947 69.300 C 146.778 69.795,146.630 70.335,146.620 70.500 C 146.609 70.665,146.420 70.755,146.200 70.700 C 145.980 70.645,145.851 70.448,145.912 70.263 C 145.974 70.077,145.810 69.997,145.547 70.084 C 144.915 70.295,144.742 71.583,145.335 71.663 C 145.591 71.697,144.900 71.832,143.800 71.963 C 142.237 72.148,141.714 72.397,141.405 73.100 C 141.188 73.595,140.689 74.000,140.295 74.000 C 139.893 74.000,139.407 74.455,139.185 75.041 C 138.925 75.723,138.584 76.003,138.194 75.853 C 137.767 75.689,137.600 75.903,137.600 76.613 C 137.600 77.297,137.379 77.600,136.880 77.600 C 136.484 77.600,135.918 77.825,135.621 78.100 C 135.190 78.500,135.139 78.500,135.365 78.100 C 135.692 77.521,135.247 77.456,134.442 77.966 C 134.135 78.160,133.982 78.577,134.104 78.893 C 134.226 79.212,134.074 79.496,133.762 79.533 C 133.453 79.570,132.930 79.630,132.600 79.667 C 132.270 79.703,132.000 80.051,132.000 80.439 C 132.000 80.866,131.645 81.195,131.100 81.272 C 130.522 81.354,130.154 81.722,130.072 82.300 C 129.980 82.951,129.676 83.200,128.972 83.200 C 128.437 83.200,128.021 83.335,128.047 83.500 C 128.256 84.819,127.921 85.160,126.303 85.277 C 125.021 85.370,124.572 85.583,124.465 86.147 C 124.367 86.663,124.478 86.799,124.823 86.586 C 125.147 86.386,125.223 86.439,125.038 86.738 C 124.881 86.992,124.313 87.200,123.776 87.200 C 123.197 87.200,122.780 87.444,122.750 87.800 C 122.654 88.953,122.597 89.136,122.236 89.467 C 122.020 89.664,122.006 89.569,122.201 89.232 C 122.450 88.803,122.360 88.730,121.833 88.932 C 121.449 89.079,121.059 89.200,120.967 89.200 C 120.875 89.200,120.800 89.547,120.800 89.972 C 120.800 90.468,120.478 90.790,119.900 90.872 C 119.322 90.954,118.954 91.322,118.872 91.900 C 118.792 92.466,118.467 92.800,117.999 92.800 C 117.589 92.800,117.143 93.151,117.006 93.580 C 116.870 94.008,116.423 94.466,116.012 94.596 C 115.525 94.751,115.174 95.371,115.004 96.378 C 114.826 97.432,114.498 97.986,113.971 98.123 C 113.519 98.242,113.200 98.672,113.200 99.163 C 113.200 99.789,112.948 100.000,112.200 100.000 C 111.400 100.000,111.200 100.200,111.200 101.000 C 111.200 101.737,110.987 102.000,110.390 102.000 C 109.894 102.000,109.433 102.388,109.200 103.000 C 108.991 103.550,108.545 104.000,108.210 104.000 C 107.867 104.000,107.600 104.350,107.600 104.800 C 107.600 105.240,107.433 105.600,107.229 105.600 C 106.480 105.600,105.600 106.887,105.600 107.982 C 105.600 108.784,105.362 109.169,104.770 109.324 C 104.314 109.443,103.847 109.897,103.733 110.333 C 103.619 110.769,103.183 111.216,102.763 111.326 C 102.173 111.480,102.000 111.887,102.000 113.119 C 102.000 114.486,101.857 114.749,101.000 114.964 C 100.381 115.120,100.000 115.499,100.000 115.961 C 100.000 116.371,99.645 116.800,99.211 116.913 C 98.646 117.061,98.346 117.599,98.152 118.813 C 97.965 119.981,97.651 120.566,97.140 120.700 C 96.562 120.851,96.400 121.277,96.400 122.647 C 96.400 124.250,96.315 124.400,95.400 124.400 C 94.484 124.400,94.400 124.549,94.400 126.172 C 94.400 127.705,94.279 127.962,93.500 128.072 C 92.748 128.179,92.579 128.486,92.475 129.944 C 92.380 131.271,92.164 131.737,91.575 131.891 C 90.957 132.052,90.800 132.449,90.800 133.847 C 90.800 135.450,90.715 135.600,89.800 135.600 C 88.878 135.600,88.800 135.744,88.800 137.437 C 88.800 138.904,88.647 139.315,88.043 139.473 C 87.250 139.680,86.800 141.102,86.800 143.403 C 86.800 144.370,86.594 144.761,86.000 144.916 C 85.304 145.098,85.200 145.462,85.200 147.719 C 85.200 150.153,85.138 150.329,84.200 150.564 C 83.227 150.808,83.200 150.911,83.200 154.380 C 83.200 157.772,83.156 157.951,82.300 158.072 L 81.400 158.200 81.298 195.266 L 81.196 232.332 82.279 232.042 C 83.077 231.829,83.454 231.392,83.713 230.376 C 83.907 229.619,84.411 228.628,84.833 228.174 C 85.255 227.720,85.600 227.120,85.600 226.841 C 85.600 225.416,94.473 207.185,96.097 205.272 C 96.411 204.903,96.900 204.015,97.183 203.300 C 97.466 202.585,97.833 202.000,98.000 202.000 C 98.167 202.000,98.521 201.473,98.788 200.829 C 99.055 200.185,99.527 199.560,99.837 199.441 C 100.146 199.322,100.400 198.974,100.400 198.668 C 100.400 198.361,100.895 197.463,101.500 196.671 C 102.105 195.880,103.050 194.584,103.600 193.792 C 104.963 191.827,110.355 185.131,110.988 184.616 C 111.270 184.387,111.658 183.901,111.850 183.535 C 112.240 182.794,124.484 170.368,126.369 168.800 C 127.031 168.250,128.468 166.990,129.564 166.000 C 130.660 165.010,132.061 163.804,132.678 163.321 C 133.295 162.837,134.500 161.892,135.355 161.221 C 136.210 160.549,137.136 160.000,137.412 160.000 C 137.688 160.000,138.014 159.739,138.137 159.421 C 138.424 158.671,140.822 158.037,144.041 157.860 C 145.867 157.760,146.615 157.559,146.654 157.160 C 146.683 156.852,146.728 156.386,146.754 156.125 C 146.784 155.816,147.259 155.725,148.119 155.864 C 149.598 156.104,150.884 155.124,150.108 154.348 C 149.818 154.058,149.608 154.063,149.422 154.365 C 149.274 154.604,149.379 154.800,149.656 154.800 C 150.048 154.800,150.053 154.907,149.680 155.280 C 148.799 156.161,148.398 155.072,149.228 154.056 C 149.653 153.536,150.000 153.322,150.000 153.579 C 150.000 153.837,150.173 153.940,150.385 153.809 C 150.601 153.676,150.424 153.224,149.985 152.785 C 149.553 152.353,149.200 151.736,149.200 151.413 C 149.200 151.055,148.965 150.915,148.600 151.055 C 148.069 151.259,148.000 146.819,148.000 112.569 L 148.000 73.852 148.870 72.926 C 149.361 72.403,149.526 72.000,149.250 72.000 C 148.900 72.000,148.873 71.800,149.154 71.300 C 149.451 70.771,149.334 70.365,148.673 69.635 C 148.193 69.105,148.053 68.818,148.362 68.997 C 148.740 69.217,148.830 69.173,148.638 68.862 C 148.170 68.105,147.276 68.336,146.947 69.300 M142.842 72.745 C 143.045 72.426,143.190 72.387,143.194 72.651 C 143.197 72.899,142.895 73.349,142.523 73.651 C 142.063 74.024,141.943 74.040,142.147 73.700 C 142.316 73.419,142.251 73.200,142.000 73.200 C 141.754 73.200,141.686 72.984,141.850 72.720 C 142.075 72.355,142.189 72.366,142.322 72.765 C 142.464 73.192,142.561 73.189,142.842 72.745 M237.724 169.870 C 237.772 170.869,239.597 171.009,239.921 170.038 C 240.031 169.706,239.925 169.599,239.652 169.768 C 239.403 169.922,239.200 169.857,239.200 169.624 C 239.200 169.391,239.009 169.200,238.776 169.200 C 238.543 169.200,238.464 169.380,238.600 169.600 C 238.736 169.820,238.672 170.000,238.457 170.000 C 238.242 170.000,237.980 169.775,237.874 169.500 C 237.768 169.225,237.700 169.391,237.724 169.870 M233.600 169.951 C 233.600 170.198,233.780 170.400,234.000 170.400 C 234.220 170.400,234.400 170.670,234.400 171.000 C 234.400 171.928,235.022 171.708,235.093 170.755 C 235.128 170.290,235.048 170.018,234.915 170.151 C 234.782 170.284,234.432 170.193,234.137 169.948 C 233.742 169.620,233.600 169.621,233.600 169.951 M235.260 171.908 C 234.742 172.508,234.438 172.775,234.583 172.500 C 234.742 172.200,234.595 172.000,234.216 172.000 C 233.743 172.000,233.647 172.250,233.834 172.994 C 234.016 173.718,233.746 174.497,232.842 175.862 C 231.260 178.250,231.279 178.400,233.153 178.400 C 234.370 178.400,234.752 178.227,234.916 177.600 C 235.108 176.865,235.462 176.800,239.237 176.800 C 242.882 176.800,243.451 176.703,244.255 175.948 C 245.043 175.208,245.781 175.069,249.881 174.893 C 254.416 174.697,255.585 174.346,254.811 173.413 C 254.622 173.186,252.973 172.947,251.147 172.882 C 248.122 172.775,246.931 172.359,247.413 171.579 C 247.501 171.437,245.688 171.323,243.384 171.325 C 241.081 171.327,239.089 171.222,238.957 171.090 C 238.825 170.959,238.286 171.015,237.759 171.216 C 237.153 171.446,236.800 171.436,236.800 171.190 C 236.800 170.513,236.232 170.778,235.260 171.908 M115.338 239.286 C 115.441 239.679,115.351 240.000,115.139 240.000 C 114.927 240.000,114.883 240.211,115.042 240.468 C 115.238 240.785,115.111 240.851,114.645 240.673 C 114.182 240.495,114.052 240.560,114.245 240.873 C 114.441 241.189,114.303 241.248,113.809 241.059 C 113.196 240.824,113.164 240.875,113.596 241.396 C 113.949 241.821,114.255 241.886,114.590 241.608 C 114.856 241.388,115.221 241.340,115.401 241.503 C 115.581 241.667,115.619 241.607,115.485 241.372 C 115.351 241.136,115.566 240.410,115.963 239.757 C 116.664 238.605,116.663 238.571,115.918 238.571 C 115.379 238.571,115.207 238.784,115.338 239.286 M112.832 242.287 C 112.814 242.556,112.530 242.671,112.200 242.545 C 111.870 242.418,111.598 242.469,111.595 242.657 C 111.592 242.846,111.473 243.433,111.332 243.963 C 111.149 244.644,111.211 244.840,111.544 244.635 C 111.802 244.475,111.892 244.149,111.745 243.911 C 111.581 243.645,111.663 243.592,111.958 243.774 C 112.328 244.003,112.320 244.215,111.919 244.697 C 111.634 245.041,111.445 245.385,111.500 245.461 C 111.843 245.936,111.454 246.229,110.500 246.216 C 109.693 246.204,109.415 246.386,109.456 246.900 C 109.491 247.347,109.228 247.600,108.730 247.600 C 108.153 247.600,107.982 247.831,108.075 248.490 C 108.163 249.120,107.966 249.424,107.400 249.529 C 106.960 249.611,106.420 249.867,106.200 250.098 C 105.928 250.383,105.960 250.427,106.300 250.235 C 106.589 250.072,106.803 250.174,106.806 250.476 C 106.811 250.861,106.925 250.841,107.237 250.400 C 107.614 249.867,107.642 249.867,107.493 250.400 C 107.395 250.753,106.970 250.948,106.463 250.875 C 105.988 250.806,105.600 250.952,105.600 251.198 C 105.600 251.445,105.768 251.544,105.973 251.417 C 106.178 251.290,106.079 251.721,105.753 252.373 C 105.385 253.112,104.948 253.478,104.597 253.344 C 104.234 253.204,103.944 253.483,103.783 254.126 C 103.645 254.675,103.187 255.215,102.766 255.325 C 102.345 255.435,102.000 255.823,102.000 256.186 C 102.000 256.599,102.188 256.741,102.500 256.565 C 102.900 256.339,102.900 256.390,102.500 256.821 C 102.225 257.118,102.000 257.743,102.000 258.212 C 102.000 258.838,101.762 259.055,101.100 259.032 C 100.465 259.009,100.163 259.259,100.075 259.881 C 100.006 260.366,99.615 260.868,99.207 260.998 C 98.721 261.152,98.372 261.779,98.197 262.817 C 98.050 263.688,97.755 264.400,97.541 264.400 C 97.328 264.400,97.263 264.578,97.397 264.795 C 97.533 265.015,97.387 265.093,97.068 264.971 C 96.629 264.802,96.490 265.141,96.472 266.418 C 96.447 268.258,96.265 268.587,95.272 268.595 C 94.768 268.599,94.569 269.026,94.477 270.300 C 94.396 271.422,94.166 272.000,93.801 272.000 C 93.496 272.000,93.119 272.208,92.962 272.462 C 92.769 272.773,92.859 272.816,93.238 272.593 C 93.570 272.398,93.513 272.590,93.100 273.063 C 92.715 273.503,92.400 274.323,92.400 274.885 C 92.400 275.583,92.137 275.976,91.570 276.124 C 91.068 276.255,90.770 276.629,90.816 277.070 C 91.095 279.739,90.788 281.146,89.900 281.272 C 89.132 281.381,88.982 281.679,88.878 283.300 C 88.795 284.594,88.579 285.200,88.202 285.200 C 87.287 285.200,86.931 286.450,86.820 290.053 C 86.809 290.413,86.440 290.801,86.000 290.916 C 85.279 291.104,85.200 291.462,85.200 294.519 C 85.200 297.806,85.168 297.921,84.200 298.164 C 83.253 298.402,83.200 298.563,83.200 301.208 C 83.200 303.671,83.112 304.000,82.450 304.000 C 81.227 304.000,81.200 304.825,81.205 341.550 C 81.212 380.578,81.094 378.400,83.201 378.400 C 84.682 378.400,84.714 378.367,84.979 376.601 C 85.156 375.421,85.515 374.659,86.024 374.387 C 86.653 374.050,86.800 373.538,86.800 371.681 C 86.800 369.689,86.917 369.338,87.700 368.995 C 88.484 368.651,88.615 368.256,88.717 365.942 C 88.827 363.458,88.890 363.298,89.680 363.505 C 90.229 363.649,90.431 363.574,90.256 363.291 C 90.108 363.051,90.170 362.742,90.393 362.604 C 90.617 362.466,90.800 361.733,90.800 360.976 C 90.800 359.867,90.955 359.600,91.600 359.600 C 92.281 359.600,92.400 359.333,92.400 357.800 C 92.400 356.486,92.558 356.000,92.986 356.000 C 93.730 356.000,94.400 354.764,94.400 353.389 C 94.400 352.680,94.654 352.259,95.160 352.126 C 95.700 351.985,95.995 351.428,96.178 350.206 C 96.365 348.963,96.654 348.427,97.218 348.279 C 97.831 348.119,98.000 347.726,98.000 346.465 C 98.000 345.101,98.137 344.836,98.900 344.728 C 99.665 344.619,99.818 344.320,99.920 342.743 C 100.028 341.076,100.127 340.908,100.883 341.106 C 101.457 341.256,101.634 341.179,101.439 340.863 C 101.282 340.608,101.343 340.400,101.576 340.400 C 101.809 340.400,102.000 340.173,102.000 339.896 C 102.000 339.619,102.360 339.168,102.800 338.893 C 103.373 338.535,103.600 337.960,103.600 336.865 C 103.600 335.537,103.718 335.341,104.500 335.368 C 105.141 335.391,105.437 335.141,105.528 334.500 C 105.598 334.005,105.902 333.600,106.204 333.600 C 106.506 333.600,106.881 333.392,107.038 333.138 C 107.231 332.827,107.141 332.784,106.762 333.007 C 106.453 333.189,106.544 332.945,106.964 332.466 C 107.385 331.987,107.616 331.483,107.478 331.345 C 107.050 330.917,108.031 329.526,108.606 329.747 C 108.968 329.886,109.193 329.595,109.276 328.878 C 109.377 327.998,109.575 327.825,110.350 327.934 C 111.207 328.054,111.283 327.945,111.117 326.816 C 111.016 326.128,111.111 325.455,111.328 325.321 C 111.549 325.184,111.598 325.280,111.438 325.538 C 111.254 325.837,111.479 325.998,112.076 325.994 C 112.819 325.989,112.883 325.912,112.400 325.600 C 111.882 325.265,111.892 325.211,112.473 325.206 C 113.317 325.198,113.713 324.016,113.369 322.534 C 113.117 321.451,113.132 321.436,113.717 322.196 C 114.054 322.633,114.252 323.116,114.158 323.268 C 114.064 323.420,114.160 323.652,114.373 323.783 C 114.587 323.916,114.689 323.662,114.602 323.211 C 114.504 322.699,114.659 322.400,115.023 322.400 C 115.340 322.400,115.600 322.130,115.600 321.800 C 115.600 321.470,115.870 321.200,116.200 321.200 C 116.530 321.200,116.800 321.040,116.800 320.844 C 116.800 320.649,116.485 320.514,116.100 320.544 C 115.715 320.575,115.438 320.396,115.484 320.147 C 115.531 319.898,115.280 319.718,114.927 319.747 C 114.575 319.776,114.198 319.550,114.091 319.244 C 113.984 318.939,114.061 318.790,114.262 318.915 C 114.464 319.039,114.629 318.807,114.629 318.399 C 114.629 317.991,114.488 317.689,114.315 317.729 C 113.967 317.808,113.880 248.117,114.228 247.555 C 114.349 247.360,114.235 247.200,113.975 247.200 C 113.641 247.200,113.664 247.001,114.051 246.523 C 114.353 246.151,114.394 245.970,114.142 246.121 C 113.844 246.300,113.705 246.049,113.742 245.398 C 113.774 244.849,113.946 244.400,114.124 244.400 C 114.302 244.400,114.344 244.232,114.217 244.028 C 114.091 243.823,114.173 243.540,114.400 243.400 C 114.976 243.044,114.438 242.300,113.785 242.550 C 113.492 242.663,113.164 242.540,113.057 242.278 C 112.910 241.914,112.856 241.917,112.832 242.287 M122.671 313.916 C 122.906 314.849,123.672 314.946,123.845 314.065 C 123.901 313.777,123.855 313.755,123.730 314.011 C 123.601 314.275,123.310 314.163,122.979 313.721 C 122.481 313.055,122.457 313.070,122.671 313.916 M121.695 315.066 C 121.002 315.346,120.239 316.800,120.786 316.800 C 121.014 316.800,121.200 316.530,121.200 316.200 C 121.200 315.870,121.470 315.600,121.800 315.600 C 122.130 315.600,122.400 315.420,122.400 315.200 C 122.400 314.980,122.355 314.814,122.300 314.832 C 122.245 314.849,121.973 314.955,121.695 315.066 M119.321 317.379 C 119.763 317.710,119.875 318.001,119.611 318.130 C 119.355 318.255,119.377 318.301,119.665 318.245 C 120.546 318.072,120.449 317.306,119.516 317.071 C 118.670 316.857,118.655 316.881,119.321 317.379 M117.071 319.516 C 117.306 320.449,118.072 320.546,118.245 319.665 C 118.301 319.377,118.255 319.355,118.130 319.611 C 118.001 319.875,117.710 319.763,117.379 319.321 C 116.881 318.655,116.857 318.670,117.071 319.516 M115.357 321.369 C 115.160 321.880,114.000 322.605,114.000 322.216 C 114.000 322.009,115.209 320.800,115.416 320.800 C 115.503 320.800,115.477 321.056,115.357 321.369 " stroke="none" fill="#fc1880" fill-rule="evenodd"></path></g></svg>